P3
7 7
255
0 0 0 255 0 0 255 0 0 0 0 0 255 0 0 255 0 0 0 0 0 
255 0 0 0 0 0 0 0 0 255 0 0 0 0 0 0 0 0 255 0 0 
255 0 0 0 0 0 0 0 0 0 0 0 0 0 0 0 0 0 255 0 0 
0 0 0 255 0 0 0 0 0 0 0 0 0 0 0 255 0 0 0 0 0 
0 0 0 0 0 0 255 0 0 0 0 0 255 0 0 0 0 0 0 0 0 
0 0 0 0 0 0 0 0 0 255 0 0 0 0 0 0 0 0 0 0 0 
0 0 0 0 0 0 0 0 0 0 0 0 0 0 0 0 0 0 0 0 0 
